<mxfile host="app.diagrams.net" modified="2023-05-30T19:15:30.847Z" agent="Mozilla/5.0 (Windows NT 10.0; Win64; x64) AppleWebKit/537.36 (KHTML, like Gecko) Chrome/113.0.0.0 Safari/537.36" etag="sxLobeGfwY4qicXRRjf4" version="21.3.5" type="device">
  <diagram name="Page-1" id="tUm5_KNQMfu-EzpkYZKZ">
    <mxGraphModel dx="1313" dy="676" grid="1" gridSize="10" guides="1" tooltips="1" connect="1" arrows="1" fold="1" page="1" pageScale="1" pageWidth="1169" pageHeight="827" math="0" shadow="0">
      <root>
        <mxCell id="0" />
        <mxCell id="1" parent="0" />
        <mxCell id="tmLtH-D-rDOSetYklQbw-46" value="Alt3" style="shape=umlFrame;whiteSpace=wrap;html=1;width=40;height=15;" parent="1" vertex="1">
          <mxGeometry x="110" y="820" width="1050" height="200" as="geometry" />
        </mxCell>
        <mxCell id="tmLtH-D-rDOSetYklQbw-39" value="" style="shape=umlLifeline;participant=umlBoundary;perimeter=lifelinePerimeter;whiteSpace=wrap;html=1;container=1;collapsible=0;recursiveResize=0;verticalAlign=top;spacingTop=36;outlineConnect=0;" parent="1" vertex="1">
          <mxGeometry x="840" y="40" width="50" height="1000" as="geometry" />
        </mxCell>
        <mxCell id="tmLtH-D-rDOSetYklQbw-56" value="" style="html=1;points=[];perimeter=orthogonalPerimeter;fontSize=11;" parent="tmLtH-D-rDOSetYklQbw-39" vertex="1">
          <mxGeometry x="20" y="720" width="10" height="200" as="geometry" />
        </mxCell>
        <mxCell id="tmLtH-D-rDOSetYklQbw-5" value="" style="shape=umlLifeline;participant=umlEntity;perimeter=lifelinePerimeter;whiteSpace=wrap;html=1;container=1;collapsible=0;recursiveResize=0;verticalAlign=top;spacingTop=36;outlineConnect=0;" parent="1" vertex="1">
          <mxGeometry x="980" y="40" width="40" height="1000" as="geometry" />
        </mxCell>
        <mxCell id="tmLtH-D-rDOSetYklQbw-57" value="" style="html=1;points=[];perimeter=orthogonalPerimeter;fontSize=11;" parent="1" vertex="1">
          <mxGeometry x="995" y="840" width="10" height="60" as="geometry" />
        </mxCell>
        <mxCell id="tmLtH-D-rDOSetYklQbw-32" value="Alt2" style="shape=umlFrame;whiteSpace=wrap;html=1;width=40;height=15;" parent="1" vertex="1">
          <mxGeometry x="110" y="570" width="646" height="140" as="geometry" />
        </mxCell>
        <mxCell id="tmLtH-D-rDOSetYklQbw-19" value="Alt1" style="shape=umlFrame;whiteSpace=wrap;html=1;width=40;height=15;" parent="1" vertex="1">
          <mxGeometry x="110" y="330" width="520" height="150" as="geometry" />
        </mxCell>
        <mxCell id="tmLtH-D-rDOSetYklQbw-1" value="" style="shape=umlLifeline;participant=umlActor;perimeter=lifelinePerimeter;whiteSpace=wrap;html=1;container=1;collapsible=0;recursiveResize=0;verticalAlign=top;spacingTop=36;outlineConnect=0;" parent="1" vertex="1">
          <mxGeometry x="30" y="40" width="20" height="1000" as="geometry" />
        </mxCell>
        <mxCell id="tmLtH-D-rDOSetYklQbw-25" value="selectDate()" style="endArrow=classic;html=1;rounded=0;strokeWidth=1;fontSize=11;" parent="tmLtH-D-rDOSetYklQbw-1" target="tmLtH-D-rDOSetYklQbw-16" edge="1">
          <mxGeometry x="-0.7537" y="10" width="50" height="50" relative="1" as="geometry">
            <mxPoint x="10" y="480" as="sourcePoint" />
            <mxPoint x="60" y="430" as="targetPoint" />
            <mxPoint as="offset" />
          </mxGeometry>
        </mxCell>
        <mxCell id="tmLtH-D-rDOSetYklQbw-41" value="makeAppointment()" style="endArrow=classic;html=1;rounded=0;strokeWidth=1;fontSize=11;" parent="tmLtH-D-rDOSetYklQbw-1" target="tmLtH-D-rDOSetYklQbw-39" edge="1">
          <mxGeometry x="-0.8302" y="10" width="50" height="50" relative="1" as="geometry">
            <mxPoint x="10" y="760" as="sourcePoint" />
            <mxPoint x="60" y="710" as="targetPoint" />
            <mxPoint as="offset" />
          </mxGeometry>
        </mxCell>
        <mxCell id="tmLtH-D-rDOSetYklQbw-50" value="" style="html=1;points=[];perimeter=orthogonalPerimeter;fontSize=11;" parent="tmLtH-D-rDOSetYklQbw-1" vertex="1">
          <mxGeometry x="5" y="70" width="10" height="920" as="geometry" />
        </mxCell>
        <mxCell id="tmLtH-D-rDOSetYklQbw-2" value="" style="shape=umlLifeline;participant=umlBoundary;perimeter=lifelinePerimeter;whiteSpace=wrap;html=1;container=1;collapsible=0;recursiveResize=0;verticalAlign=top;spacingTop=36;outlineConnect=0;" parent="1" vertex="1">
          <mxGeometry x="160" y="40" width="50" height="1000" as="geometry" />
        </mxCell>
        <mxCell id="tmLtH-D-rDOSetYklQbw-51" value="" style="html=1;points=[];perimeter=orthogonalPerimeter;fontSize=11;" parent="tmLtH-D-rDOSetYklQbw-2" vertex="1">
          <mxGeometry x="20" y="70" width="10" height="910" as="geometry" />
        </mxCell>
        <mxCell id="4nbXA-XBb0YuEGlwC8Sb-1" value="showNutrPage()" style="endArrow=classic;html=1;rounded=0;" edge="1" parent="tmLtH-D-rDOSetYklQbw-2" source="tmLtH-D-rDOSetYklQbw-2">
          <mxGeometry x="-0.0716" y="22" width="50" height="50" relative="1" as="geometry">
            <mxPoint x="350" y="270" as="sourcePoint" />
            <mxPoint x="30" y="144" as="targetPoint" />
            <Array as="points">
              <mxPoint x="80" y="130" />
              <mxPoint x="80" y="144" />
            </Array>
            <mxPoint x="-2" y="-10" as="offset" />
          </mxGeometry>
        </mxCell>
        <mxCell id="4nbXA-XBb0YuEGlwC8Sb-21" value="showNutrPage()" style="endArrow=classic;html=1;rounded=0;" edge="1" parent="tmLtH-D-rDOSetYklQbw-2">
          <mxGeometry x="-0.013" y="20" width="50" height="50" relative="1" as="geometry">
            <mxPoint x="30" y="642" as="sourcePoint" />
            <mxPoint x="30" y="659" as="targetPoint" />
            <Array as="points">
              <mxPoint x="60" y="642" />
              <mxPoint x="60" y="659" />
            </Array>
            <mxPoint as="offset" />
          </mxGeometry>
        </mxCell>
        <mxCell id="4nbXA-XBb0YuEGlwC8Sb-9" value="showNutrPage()" style="endArrow=classic;html=1;rounded=0;exitX=1.619;exitY=0.373;exitDx=0;exitDy=0;exitPerimeter=0;" edge="1" parent="tmLtH-D-rDOSetYklQbw-2" source="tmLtH-D-rDOSetYklQbw-51">
          <mxGeometry x="-0.0626" y="20" width="50" height="50" relative="1" as="geometry">
            <mxPoint x="360" y="240" as="sourcePoint" />
            <mxPoint x="29" y="430" as="targetPoint" />
            <Array as="points">
              <mxPoint x="80" y="410" />
              <mxPoint x="80" y="430" />
            </Array>
            <mxPoint as="offset" />
          </mxGeometry>
        </mxCell>
        <mxCell id="tmLtH-D-rDOSetYklQbw-3" value="" style="shape=umlLifeline;participant=umlEntity;perimeter=lifelinePerimeter;whiteSpace=wrap;html=1;container=1;collapsible=0;recursiveResize=0;verticalAlign=top;spacingTop=36;outlineConnect=0;" parent="1" vertex="1">
          <mxGeometry x="300" y="40" width="40" height="1000" as="geometry" />
        </mxCell>
        <mxCell id="tmLtH-D-rDOSetYklQbw-52" value="" style="html=1;points=[];perimeter=orthogonalPerimeter;fontSize=11;" parent="tmLtH-D-rDOSetYklQbw-3" vertex="1">
          <mxGeometry x="15" y="80" width="10" height="870" as="geometry" />
        </mxCell>
        <mxCell id="4nbXA-XBb0YuEGlwC8Sb-13" value="getAvailTime" style="endArrow=classic;html=1;rounded=0;" edge="1" parent="tmLtH-D-rDOSetYklQbw-3" target="tmLtH-D-rDOSetYklQbw-3">
          <mxGeometry width="50" height="50" relative="1" as="geometry">
            <mxPoint x="30" y="540" as="sourcePoint" />
            <mxPoint x="270" y="390" as="targetPoint" />
            <Array as="points">
              <mxPoint x="70" y="540" />
              <mxPoint x="70" y="550" />
            </Array>
          </mxGeometry>
        </mxCell>
        <mxCell id="4nbXA-XBb0YuEGlwC8Sb-22" value="" style="endArrow=classic;html=1;rounded=0;" edge="1" parent="tmLtH-D-rDOSetYklQbw-3">
          <mxGeometry width="50" height="50" relative="1" as="geometry">
            <mxPoint x="30" y="610" as="sourcePoint" />
            <mxPoint x="30" y="620" as="targetPoint" />
            <Array as="points">
              <mxPoint x="80" y="610" />
              <mxPoint x="80" y="620" />
            </Array>
          </mxGeometry>
        </mxCell>
        <mxCell id="4nbXA-XBb0YuEGlwC8Sb-23" value="getNutrNames()" style="edgeLabel;html=1;align=center;verticalAlign=middle;resizable=0;points=[];" vertex="1" connectable="0" parent="4nbXA-XBb0YuEGlwC8Sb-22">
          <mxGeometry x="-0.1481" y="-2" relative="1" as="geometry">
            <mxPoint y="-12" as="offset" />
          </mxGeometry>
        </mxCell>
        <mxCell id="tmLtH-D-rDOSetYklQbw-4" value="" style="shape=umlLifeline;participant=umlBoundary;perimeter=lifelinePerimeter;whiteSpace=wrap;html=1;container=1;collapsible=0;recursiveResize=0;verticalAlign=top;spacingTop=36;outlineConnect=0;" parent="1" vertex="1">
          <mxGeometry x="440" y="40" width="50" height="1000" as="geometry" />
        </mxCell>
        <mxCell id="tmLtH-D-rDOSetYklQbw-53" value="" style="html=1;points=[];perimeter=orthogonalPerimeter;fontSize=11;" parent="tmLtH-D-rDOSetYklQbw-4" vertex="1">
          <mxGeometry x="20" y="240" width="10" height="180" as="geometry" />
        </mxCell>
        <mxCell id="tmLtH-D-rDOSetYklQbw-6" value="selectNutritionist()" style="endArrow=classic;html=1;rounded=0;" parent="1" source="tmLtH-D-rDOSetYklQbw-1" target="tmLtH-D-rDOSetYklQbw-2" edge="1">
          <mxGeometry x="-0.0276" y="10" width="50" height="50" relative="1" as="geometry">
            <mxPoint x="60" y="150" as="sourcePoint" />
            <mxPoint x="110" y="100" as="targetPoint" />
            <Array as="points">
              <mxPoint x="110" y="200" />
            </Array>
            <mxPoint x="1" as="offset" />
          </mxGeometry>
        </mxCell>
        <mxCell id="tmLtH-D-rDOSetYklQbw-7" value="" style="endArrow=classic;html=1;rounded=0;" parent="1" source="tmLtH-D-rDOSetYklQbw-2" target="tmLtH-D-rDOSetYklQbw-3" edge="1">
          <mxGeometry width="50" height="50" relative="1" as="geometry">
            <mxPoint x="220" y="120" as="sourcePoint" />
            <mxPoint x="270" y="70" as="targetPoint" />
            <Array as="points">
              <mxPoint x="260" y="120" />
            </Array>
          </mxGeometry>
        </mxCell>
        <mxCell id="tmLtH-D-rDOSetYklQbw-11" value="getNutrNames()" style="edgeLabel;html=1;align=center;verticalAlign=middle;resizable=0;points=[];" parent="tmLtH-D-rDOSetYklQbw-7" vertex="1" connectable="0">
          <mxGeometry x="-0.1481" y="-2" relative="1" as="geometry">
            <mxPoint y="-12" as="offset" />
          </mxGeometry>
        </mxCell>
        <mxCell id="tmLtH-D-rDOSetYklQbw-12" value="NutritionistNames" style="endArrow=classic;html=1;rounded=0;dashed=1;" parent="1" source="tmLtH-D-rDOSetYklQbw-3" target="tmLtH-D-rDOSetYklQbw-2" edge="1">
          <mxGeometry x="0.0296" y="-10" width="50" height="50" relative="1" as="geometry">
            <mxPoint x="270" y="190" as="sourcePoint" />
            <mxPoint x="320" y="140" as="targetPoint" />
            <Array as="points">
              <mxPoint x="270" y="140" />
            </Array>
            <mxPoint as="offset" />
          </mxGeometry>
        </mxCell>
        <mxCell id="tmLtH-D-rDOSetYklQbw-13" value="getNutrInfo()" style="endArrow=classic;html=1;rounded=0;" parent="1" source="tmLtH-D-rDOSetYklQbw-2" target="tmLtH-D-rDOSetYklQbw-3" edge="1">
          <mxGeometry x="-0.0296" y="10" width="50" height="50" relative="1" as="geometry">
            <mxPoint x="210" y="250" as="sourcePoint" />
            <mxPoint x="260" y="200" as="targetPoint" />
            <Array as="points">
              <mxPoint x="260" y="210" />
            </Array>
            <mxPoint as="offset" />
          </mxGeometry>
        </mxCell>
        <mxCell id="tmLtH-D-rDOSetYklQbw-15" value="insertSelection()" style="endArrow=classic;html=1;rounded=0;" parent="1" source="tmLtH-D-rDOSetYklQbw-1" target="tmLtH-D-rDOSetYklQbw-4" edge="1">
          <mxGeometry x="-0.7153" y="10" width="50" height="50" relative="1" as="geometry">
            <mxPoint x="100" y="320" as="sourcePoint" />
            <mxPoint x="150" y="270" as="targetPoint" />
            <Array as="points">
              <mxPoint x="260" y="320" />
            </Array>
            <mxPoint x="1" as="offset" />
          </mxGeometry>
        </mxCell>
        <mxCell id="tmLtH-D-rDOSetYklQbw-16" value="" style="shape=umlLifeline;participant=umlBoundary;perimeter=lifelinePerimeter;whiteSpace=wrap;html=1;container=1;collapsible=0;recursiveResize=0;verticalAlign=top;spacingTop=36;outlineConnect=0;" parent="1" vertex="1">
          <mxGeometry x="584" y="40" width="50" height="1000" as="geometry" />
        </mxCell>
        <mxCell id="tmLtH-D-rDOSetYklQbw-54" value="" style="html=1;points=[];perimeter=orthogonalPerimeter;fontSize=11;" parent="tmLtH-D-rDOSetYklQbw-16" vertex="1">
          <mxGeometry x="20" y="320" width="10" height="180" as="geometry" />
        </mxCell>
        <mxCell id="tmLtH-D-rDOSetYklQbw-18" value="" style="shape=umlLifeline;participant=umlBoundary;perimeter=lifelinePerimeter;whiteSpace=wrap;html=1;container=1;collapsible=0;recursiveResize=0;verticalAlign=top;spacingTop=36;outlineConnect=0;" parent="1" vertex="1">
          <mxGeometry x="1119" y="40" width="50" height="1000" as="geometry" />
        </mxCell>
        <mxCell id="tmLtH-D-rDOSetYklQbw-17" value="showCalendar()" style="endArrow=classic;html=1;rounded=0;" parent="1" source="tmLtH-D-rDOSetYklQbw-4" target="tmLtH-D-rDOSetYklQbw-16" edge="1">
          <mxGeometry x="-0.1266" y="10" width="50" height="50" relative="1" as="geometry">
            <mxPoint x="470" y="360" as="sourcePoint" />
            <mxPoint x="520" y="310" as="targetPoint" />
            <Array as="points">
              <mxPoint x="520" y="360" />
            </Array>
            <mxPoint as="offset" />
          </mxGeometry>
        </mxCell>
        <mxCell id="tmLtH-D-rDOSetYklQbw-21" value="" style="endArrow=none;dashed=1;html=1;rounded=0;entryX=1.003;entryY=0.5;entryDx=0;entryDy=0;entryPerimeter=0;strokeWidth=2;exitX=0.001;exitY=0.5;exitDx=0;exitDy=0;exitPerimeter=0;" parent="1" source="tmLtH-D-rDOSetYklQbw-19" target="tmLtH-D-rDOSetYklQbw-19" edge="1">
          <mxGeometry width="50" height="50" relative="1" as="geometry">
            <mxPoint x="140" y="380" as="sourcePoint" />
            <mxPoint x="190" y="330" as="targetPoint" />
          </mxGeometry>
        </mxCell>
        <mxCell id="tmLtH-D-rDOSetYklQbw-22" value="&lt;font style=&quot;font-size: 11px;&quot;&gt;Make an appointment: Yes&lt;/font&gt;" style="text;html=1;strokeColor=none;fillColor=none;align=center;verticalAlign=middle;whiteSpace=wrap;rounded=0;" parent="1" vertex="1">
          <mxGeometry x="120" y="360" width="60" height="30" as="geometry" />
        </mxCell>
        <mxCell id="tmLtH-D-rDOSetYklQbw-23" value="&lt;font style=&quot;font-size: 11px;&quot;&gt;Make an appointment:&amp;nbsp;&lt;br&gt;No&lt;br&gt;&lt;/font&gt;" style="text;html=1;strokeColor=none;fillColor=none;align=center;verticalAlign=middle;whiteSpace=wrap;rounded=0;" parent="1" vertex="1">
          <mxGeometry x="120" y="430" width="60" height="30" as="geometry" />
        </mxCell>
        <mxCell id="tmLtH-D-rDOSetYklQbw-26" value="" style="shape=umlLifeline;participant=umlBoundary;perimeter=lifelinePerimeter;whiteSpace=wrap;html=1;container=1;collapsible=0;recursiveResize=0;verticalAlign=top;spacingTop=36;outlineConnect=0;" parent="1" vertex="1">
          <mxGeometry x="720" y="40" width="50" height="1000" as="geometry" />
        </mxCell>
        <mxCell id="tmLtH-D-rDOSetYklQbw-55" value="" style="html=1;points=[];perimeter=orthogonalPerimeter;fontSize=11;" parent="tmLtH-D-rDOSetYklQbw-26" vertex="1">
          <mxGeometry x="20" y="560" width="10" height="160" as="geometry" />
        </mxCell>
        <mxCell id="tmLtH-D-rDOSetYklQbw-28" value="checkAvailableDates()" style="endArrow=classic;html=1;rounded=0;strokeWidth=1;fontSize=11;" parent="1" edge="1">
          <mxGeometry x="0.513" y="-10" width="50" height="50" relative="1" as="geometry">
            <mxPoint x="608.5" y="543" as="sourcePoint" />
            <mxPoint x="319.5" y="543" as="targetPoint" />
            <Array as="points">
              <mxPoint x="470" y="543" />
            </Array>
            <mxPoint as="offset" />
          </mxGeometry>
        </mxCell>
        <mxCell id="tmLtH-D-rDOSetYklQbw-29" value="NutritionistNames" style="endArrow=classic;html=1;rounded=0;strokeWidth=1;fontSize=11;dashed=1;" parent="1" edge="1">
          <mxGeometry x="0.0296" y="-10" width="50" height="50" relative="1" as="geometry">
            <mxPoint x="319.5" y="667" as="sourcePoint" />
            <mxPoint x="184.5" y="667" as="targetPoint" />
            <Array as="points">
              <mxPoint x="240" y="667" />
            </Array>
            <mxPoint as="offset" />
          </mxGeometry>
        </mxCell>
        <mxCell id="tmLtH-D-rDOSetYklQbw-31" value="" style="endArrow=classic;html=1;rounded=0;strokeWidth=1;fontSize=11;" parent="1" source="tmLtH-D-rDOSetYklQbw-1" target="tmLtH-D-rDOSetYklQbw-26" edge="1">
          <mxGeometry width="50" height="50" relative="1" as="geometry">
            <mxPoint x="800" y="730" as="sourcePoint" />
            <mxPoint x="850" y="680" as="targetPoint" />
            <Array as="points">
              <mxPoint x="360" y="720" />
            </Array>
          </mxGeometry>
        </mxCell>
        <mxCell id="tmLtH-D-rDOSetYklQbw-38" value="selectTime()" style="edgeLabel;html=1;align=center;verticalAlign=middle;resizable=0;points=[];fontSize=11;" parent="tmLtH-D-rDOSetYklQbw-31" vertex="1" connectable="0">
          <mxGeometry x="-0.8596" y="4" relative="1" as="geometry">
            <mxPoint x="1" y="-6" as="offset" />
          </mxGeometry>
        </mxCell>
        <mxCell id="tmLtH-D-rDOSetYklQbw-33" value="" style="endArrow=none;dashed=1;html=1;rounded=0;strokeWidth=2;fontSize=11;exitX=0.001;exitY=0.545;exitDx=0;exitDy=0;exitPerimeter=0;" parent="1" edge="1">
          <mxGeometry width="50" height="50" relative="1" as="geometry">
            <mxPoint x="110.64599999999996" y="633.95" as="sourcePoint" />
            <mxPoint x="760" y="634" as="targetPoint" />
            <Array as="points">
              <mxPoint x="437" y="634" />
            </Array>
          </mxGeometry>
        </mxCell>
        <mxCell id="tmLtH-D-rDOSetYklQbw-35" value="&lt;font style=&quot;font-size: 11px;&quot;&gt;Is there available date: Yes&lt;/font&gt;" style="text;html=1;strokeColor=none;fillColor=none;align=center;verticalAlign=middle;whiteSpace=wrap;rounded=0;" parent="1" vertex="1">
          <mxGeometry x="120" y="590" width="60" height="30" as="geometry" />
        </mxCell>
        <mxCell id="tmLtH-D-rDOSetYklQbw-36" value="&lt;font style=&quot;font-size: 11px;&quot;&gt;Is there available date: No&lt;/font&gt;" style="text;html=1;strokeColor=none;fillColor=none;align=center;verticalAlign=middle;whiteSpace=wrap;rounded=0;" parent="1" vertex="1">
          <mxGeometry x="120" y="640" width="60" height="30" as="geometry" />
        </mxCell>
        <mxCell id="tmLtH-D-rDOSetYklQbw-40" value="showConfirmPage()" style="endArrow=classic;html=1;rounded=0;strokeWidth=1;fontSize=11;" parent="1" source="tmLtH-D-rDOSetYklQbw-26" target="tmLtH-D-rDOSetYklQbw-39" edge="1">
          <mxGeometry x="-0.075" y="10" width="50" height="50" relative="1" as="geometry">
            <mxPoint x="780" y="780" as="sourcePoint" />
            <mxPoint x="830" y="730" as="targetPoint" />
            <Array as="points">
              <mxPoint x="820" y="760" />
            </Array>
            <mxPoint as="offset" />
          </mxGeometry>
        </mxCell>
        <mxCell id="tmLtH-D-rDOSetYklQbw-42" value="addAppointment()" style="endArrow=classic;html=1;rounded=0;strokeWidth=1;fontSize=11;" parent="1" source="tmLtH-D-rDOSetYklQbw-39" target="tmLtH-D-rDOSetYklQbw-5" edge="1">
          <mxGeometry x="-0.0258" y="10" width="50" height="50" relative="1" as="geometry">
            <mxPoint x="900" y="827" as="sourcePoint" />
            <mxPoint x="950" y="777" as="targetPoint" />
            <Array as="points">
              <mxPoint x="940" y="840" />
            </Array>
            <mxPoint as="offset" />
          </mxGeometry>
        </mxCell>
        <mxCell id="tmLtH-D-rDOSetYklQbw-43" value="getMyAppointData()" style="endArrow=classic;html=1;rounded=0;strokeWidth=1;fontSize=11;" parent="1" edge="1">
          <mxGeometry x="-0.0184" y="30" width="50" height="50" relative="1" as="geometry">
            <mxPoint x="1006" y="860" as="sourcePoint" />
            <mxPoint x="1005.5" y="881" as="targetPoint" />
            <Array as="points">
              <mxPoint x="1036" y="860" />
              <mxPoint x="1036" y="881" />
            </Array>
            <mxPoint as="offset" />
          </mxGeometry>
        </mxCell>
        <mxCell id="tmLtH-D-rDOSetYklQbw-44" value="AppointmentData" style="endArrow=classic;html=1;rounded=0;strokeWidth=1;fontSize=11;dashed=1;" parent="1" edge="1">
          <mxGeometry x="-0.0191" y="-7" width="50" height="50" relative="1" as="geometry">
            <mxPoint x="999.25" y="893.0000000000002" as="sourcePoint" />
            <mxPoint x="1143.5" y="893.0000000000002" as="targetPoint" />
            <Array as="points">
              <mxPoint x="1080" y="893" />
            </Array>
            <mxPoint x="-1" as="offset" />
          </mxGeometry>
        </mxCell>
        <mxCell id="tmLtH-D-rDOSetYklQbw-45" value="getNutrNames()" style="endArrow=classic;html=1;rounded=0;strokeWidth=1;fontSize=11;" parent="1" edge="1">
          <mxGeometry x="-0.8096" y="-10" width="50" height="50" relative="1" as="geometry">
            <mxPoint x="860" y="960" as="sourcePoint" />
            <mxPoint x="320" y="960" as="targetPoint" />
            <Array as="points">
              <mxPoint x="660" y="960" />
            </Array>
            <mxPoint as="offset" />
          </mxGeometry>
        </mxCell>
        <mxCell id="tmLtH-D-rDOSetYklQbw-47" value="" style="endArrow=none;dashed=1;html=1;rounded=0;strokeWidth=2;fontSize=11;exitX=0;exitY=0.595;exitDx=0;exitDy=0;exitPerimeter=0;entryX=1;entryY=0.6;entryDx=0;entryDy=0;entryPerimeter=0;" parent="1" source="tmLtH-D-rDOSetYklQbw-46" target="tmLtH-D-rDOSetYklQbw-46" edge="1">
          <mxGeometry width="50" height="50" relative="1" as="geometry">
            <mxPoint x="230" y="930" as="sourcePoint" />
            <mxPoint x="280" y="880" as="targetPoint" />
          </mxGeometry>
        </mxCell>
        <mxCell id="tmLtH-D-rDOSetYklQbw-48" value="&lt;font style=&quot;font-size: 11px;&quot;&gt;Approve to make an appointment: Yes&lt;/font&gt;" style="text;html=1;strokeColor=none;fillColor=none;align=center;verticalAlign=middle;whiteSpace=wrap;rounded=0;" parent="1" vertex="1">
          <mxGeometry x="120" y="860" width="60" height="30" as="geometry" />
        </mxCell>
        <mxCell id="tmLtH-D-rDOSetYklQbw-49" value="&lt;font style=&quot;font-size: 11px;&quot;&gt;Approve to make an appointment: No&lt;/font&gt;" style="text;html=1;strokeColor=none;fillColor=none;align=center;verticalAlign=middle;whiteSpace=wrap;rounded=0;" parent="1" vertex="1">
          <mxGeometry x="120" y="960" width="60" height="30" as="geometry" />
        </mxCell>
        <mxCell id="aPmzH9TBy1Iu_j4zL48j-1" value="NutrionistsPage" style="rounded=0;whiteSpace=wrap;html=1;" parent="1" vertex="1">
          <mxGeometry x="140" y="36" width="102.5" height="44" as="geometry" />
        </mxCell>
        <mxCell id="aPmzH9TBy1Iu_j4zL48j-2" value="User" style="text;html=1;align=center;verticalAlign=middle;resizable=0;points=[];autosize=1;strokeColor=none;fillColor=none;" parent="1" vertex="1">
          <mxGeometry x="15" y="8" width="50" height="30" as="geometry" />
        </mxCell>
        <mxCell id="aPmzH9TBy1Iu_j4zL48j-3" value="Nutritionist" style="rounded=0;whiteSpace=wrap;html=1;" parent="1" vertex="1">
          <mxGeometry x="270" y="40" width="100" height="40" as="geometry" />
        </mxCell>
        <mxCell id="aPmzH9TBy1Iu_j4zL48j-4" value="NutritionistInfoPage" style="rounded=0;whiteSpace=wrap;html=1;" parent="1" vertex="1">
          <mxGeometry x="410" y="40" width="110" height="40" as="geometry" />
        </mxCell>
        <mxCell id="aPmzH9TBy1Iu_j4zL48j-6" value="DaySelectionPage" style="rounded=0;whiteSpace=wrap;html=1;" parent="1" vertex="1">
          <mxGeometry x="554" y="40" width="116" height="40" as="geometry" />
        </mxCell>
        <mxCell id="aPmzH9TBy1Iu_j4zL48j-7" value="HourSelectionPage" style="rounded=0;whiteSpace=wrap;html=1;" parent="1" vertex="1">
          <mxGeometry x="690" y="40" width="110" height="40" as="geometry" />
        </mxCell>
        <mxCell id="aPmzH9TBy1Iu_j4zL48j-8" value="BookingConfiPage" style="rounded=0;whiteSpace=wrap;html=1;" parent="1" vertex="1">
          <mxGeometry x="820" y="38" width="110" height="42" as="geometry" />
        </mxCell>
        <mxCell id="aPmzH9TBy1Iu_j4zL48j-9" value="User" style="rounded=0;whiteSpace=wrap;html=1;" parent="1" vertex="1">
          <mxGeometry x="945" y="38" width="110" height="42" as="geometry" />
        </mxCell>
        <mxCell id="aPmzH9TBy1Iu_j4zL48j-10" value="MyAppointmentPage" style="rounded=0;whiteSpace=wrap;html=1;" parent="1" vertex="1">
          <mxGeometry x="1090" y="38" width="110" height="42" as="geometry" />
        </mxCell>
        <mxCell id="tmLtH-D-rDOSetYklQbw-14" value="NutrionistInfo" style="endArrow=classic;html=1;rounded=0;dashed=1;" parent="1" edge="1">
          <mxGeometry x="-0.0311" y="10" width="50" height="50" relative="1" as="geometry">
            <mxPoint x="315" y="238" as="sourcePoint" />
            <mxPoint x="184.5" y="238" as="targetPoint" />
            <mxPoint as="offset" />
            <Array as="points">
              <mxPoint x="260" y="238" />
            </Array>
          </mxGeometry>
        </mxCell>
        <mxCell id="4nbXA-XBb0YuEGlwC8Sb-2" value="ShowNutrInfoPage()" style="endArrow=classic;html=1;rounded=0;exitX=1.238;exitY=0.188;exitDx=0;exitDy=0;exitPerimeter=0;" edge="1" parent="1" source="tmLtH-D-rDOSetYklQbw-51" target="tmLtH-D-rDOSetYklQbw-4">
          <mxGeometry width="50" height="50" relative="1" as="geometry">
            <mxPoint x="200" y="280" as="sourcePoint" />
            <mxPoint x="560" y="260" as="targetPoint" />
            <Array as="points">
              <mxPoint x="220" y="280" />
              <mxPoint x="260" y="280" />
              <mxPoint x="330" y="280" />
            </Array>
          </mxGeometry>
        </mxCell>
        <mxCell id="4nbXA-XBb0YuEGlwC8Sb-6" value="" style="endArrow=classic;html=1;rounded=0;" edge="1" parent="1">
          <mxGeometry width="50" height="50" relative="1" as="geometry">
            <mxPoint x="460" y="420" as="sourcePoint" />
            <mxPoint x="320" y="421" as="targetPoint" />
            <Array as="points" />
          </mxGeometry>
        </mxCell>
        <mxCell id="4nbXA-XBb0YuEGlwC8Sb-7" value="getNutrNames()" style="edgeLabel;html=1;align=center;verticalAlign=middle;resizable=0;points=[];" vertex="1" connectable="0" parent="4nbXA-XBb0YuEGlwC8Sb-6">
          <mxGeometry x="-0.1481" y="-2" relative="1" as="geometry">
            <mxPoint y="-12" as="offset" />
          </mxGeometry>
        </mxCell>
        <mxCell id="4nbXA-XBb0YuEGlwC8Sb-8" value="NutritionistNames" style="endArrow=classic;html=1;rounded=0;dashed=1;" edge="1" parent="1">
          <mxGeometry x="0.0296" y="-10" width="50" height="50" relative="1" as="geometry">
            <mxPoint x="310" y="430" as="sourcePoint" />
            <mxPoint x="184.5" y="429" as="targetPoint" />
            <Array as="points">
              <mxPoint x="300" y="430" />
              <mxPoint x="280" y="429" />
            </Array>
            <mxPoint as="offset" />
          </mxGeometry>
        </mxCell>
        <mxCell id="4nbXA-XBb0YuEGlwC8Sb-14" value="AvailableTime" style="endArrow=classic;html=1;rounded=0;dashed=1;" edge="1" parent="1">
          <mxGeometry width="50" height="50" relative="1" as="geometry">
            <mxPoint x="325" y="603" as="sourcePoint" />
            <mxPoint x="744.5" y="603" as="targetPoint" />
          </mxGeometry>
        </mxCell>
        <mxCell id="4nbXA-XBb0YuEGlwC8Sb-15" value="showHourSelectPage()" style="endArrow=classic;html=1;rounded=0;" edge="1" parent="1" source="tmLtH-D-rDOSetYklQbw-26">
          <mxGeometry x="-0.1696" y="14" width="50" height="50" relative="1" as="geometry">
            <mxPoint x="520" y="580" as="sourcePoint" />
            <mxPoint x="750" y="630" as="targetPoint" />
            <Array as="points">
              <mxPoint x="780" y="610" />
              <mxPoint x="780" y="630" />
            </Array>
            <mxPoint x="11" y="4" as="offset" />
          </mxGeometry>
        </mxCell>
        <mxCell id="4nbXA-XBb0YuEGlwC8Sb-24" value="showMyAppointPage()" style="endArrow=classic;html=1;rounded=0;" edge="1" parent="1" source="tmLtH-D-rDOSetYklQbw-18" target="tmLtH-D-rDOSetYklQbw-18">
          <mxGeometry x="-0.2153" y="32" width="50" height="50" relative="1" as="geometry">
            <mxPoint x="1230" y="900" as="sourcePoint" />
            <mxPoint x="680" y="670" as="targetPoint" />
            <Array as="points">
              <mxPoint x="1180" y="900" />
              <mxPoint x="1180" y="920" />
            </Array>
            <mxPoint x="-2" y="-10" as="offset" />
          </mxGeometry>
        </mxCell>
        <mxCell id="4nbXA-XBb0YuEGlwC8Sb-25" value="" style="html=1;points=[];perimeter=orthogonalPerimeter;fontSize=11;" vertex="1" parent="1">
          <mxGeometry x="995" y="840" width="10" height="60" as="geometry" />
        </mxCell>
        <mxCell id="4nbXA-XBb0YuEGlwC8Sb-26" value="" style="html=1;points=[];perimeter=orthogonalPerimeter;fontSize=11;" vertex="1" parent="1">
          <mxGeometry x="1140" y="890" width="10" height="30" as="geometry" />
        </mxCell>
        <mxCell id="4nbXA-XBb0YuEGlwC8Sb-27" value="NutritionistNames" style="endArrow=classic;html=1;rounded=0;strokeWidth=1;fontSize=11;dashed=1;exitX=0.157;exitY=0.989;exitDx=0;exitDy=0;exitPerimeter=0;" edge="1" parent="1" source="tmLtH-D-rDOSetYklQbw-52" target="tmLtH-D-rDOSetYklQbw-51">
          <mxGeometry x="0.0296" y="-10" width="50" height="50" relative="1" as="geometry">
            <mxPoint x="329.5" y="677" as="sourcePoint" />
            <mxPoint x="194.5" y="677" as="targetPoint" />
            <Array as="points">
              <mxPoint x="250" y="980" />
            </Array>
            <mxPoint as="offset" />
          </mxGeometry>
        </mxCell>
        <mxCell id="4nbXA-XBb0YuEGlwC8Sb-28" value="showNutrPage()" style="endArrow=classic;html=1;rounded=0;" edge="1" parent="1">
          <mxGeometry x="-0.013" y="20" width="50" height="50" relative="1" as="geometry">
            <mxPoint x="192" y="993" as="sourcePoint" />
            <mxPoint x="192" y="1010" as="targetPoint" />
            <Array as="points">
              <mxPoint x="222" y="993" />
              <mxPoint x="222" y="1010" />
            </Array>
            <mxPoint as="offset" />
          </mxGeometry>
        </mxCell>
      </root>
    </mxGraphModel>
  </diagram>
</mxfile>
